<svg xmlns="http://www.w3.org/2000/svg" xmlns:xlink="http://www.w3.org/1999/xlink" xmlns:lucid="lucid" width="1387.33" height="814"><g transform="translate(19.66666666662786 -345.66666666662786)" lucid:page-tab-id="WtL8W9nHIgrH"><path d="M-18.67 352.67a6 6 0 0 1 6-6H290a6 6 0 0 1 6 6v636a6 6 0 0 1-6 6H-12.67a6 6 0 0 1-6-6z" stroke="#ced4db" stroke-width="2" fill="#fff"/><path d="M686.74 941.92c0 32.04-50.74 58-113.33 58-62.58 0-113.32-25.96-113.32-58 0-32.03 50.74-58 113.33-58 62.6 0 113.34 25.97 113.34 58z" stroke="#000" stroke-width="2" fill="#fff"/><use xlink:href="#a" transform="matrix(1,0,0,1,465.07665394332537,888.9248192160985) translate(25.79058159722223 61.27777777777778)"/><use xlink:href="#b" transform="matrix(1,0,0,1,465.07665394332537,888.9248192160985) translate(125.86653645833334 61.27777777777778)"/><path d="M1366.67 899.88c0 32.03-50.74 58-113.34 58S1140 931.9 1140 899.88s50.74-58 113.33-58c62.6 0 113.34 25.97 113.34 58z" stroke="#000" stroke-width="2" fill="#fff"/><use xlink:href="#c" transform="matrix(1,0,0,1,1145.0000000000005,846.8776020899379) translate(8.272135416666686 61.27777777777778)"/><use xlink:href="#b" transform="matrix(1,0,0,1,1145.0000000000005,846.8776020899379) translate(143.38498263888889 61.27777777777778)"/><path d="M830.67 584.67c0 32.03-50.74 58-113.34 58S604 616.7 604 584.67c0-32.04 50.74-58 113.33-58 62.6 0 113.34 25.96 113.34 58z" stroke="#000" stroke-width="2" fill="#b8f5ed"/><use xlink:href="#d" transform="matrix(1,0,0,1,608.9999999999998,531.6666666666281) translate(37.8878125 44.71527777777778)"/><use xlink:href="#e" transform="matrix(1,0,0,1,608.9999999999998,531.6666666666281) translate(35.52236111111112 76.98090277777777)"/><use xlink:href="#b" transform="matrix(1,0,0,1,608.9999999999998,531.6666666666281) translate(115.14475694444445 76.98090277777777)"/><path d="M562.67 584.67c0 32.03-50.74 58-113.34 58S336 616.7 336 584.67c0-32.04 50.74-58 113.33-58 62.6 0 113.34 25.96 113.34 58z" stroke="#000" stroke-width="2" fill="#b8f5ed"/><use xlink:href="#f" transform="matrix(1,0,0,1,340.99999999999994,531.6666666666281) translate(29.224826388888886 61.27777777777778)"/><use xlink:href="#b" transform="matrix(1,0,0,1,340.99999999999994,531.6666666666281) translate(122.43229166666666 61.27777777777778)"/><path d="M668.18 866.7l-14.63 11.62" stroke="#54c45e" stroke-width="4" fill="none"/><path d="M671.9 866.2l.07.03-2.6 2.06-2.46-3.1.63-.5z" stroke="#54c45e" stroke-width=".05" fill="#54c45e"/><path d="M640.8 888.43l8.3-12.5 5.77 7.27z" stroke="#54c45e" stroke-width="4" fill="#54c45e"/><path d="M1098.67 584.67c0 32.03-50.74 58-113.34 58S872 616.7 872 584.67c0-32.04 50.74-58 113.33-58 62.6 0 113.34 25.96 113.34 58z" stroke="#000" stroke-width="2" fill="#b8f5ed"/><use xlink:href="#g" transform="matrix(1,0,0,1,877.0000000000002,531.6666666666281) translate(41.39258680555556 44.71527777777778)"/><use xlink:href="#h" transform="matrix(1,0,0,1,877.0000000000002,531.6666666666281) translate(101.24501736111111 44.71527777777778)"/><use xlink:href="#b" transform="matrix(1,0,0,1,877.0000000000002,531.6666666666281) translate(75.33355902777778 76.98090277777777)"/><path d="M1366.67 584.67c0 32.03-50.74 58-113.34 58S1140 616.7 1140 584.67c0-32.04 50.74-58 113.33-58 62.6 0 113.34 25.96 113.34 58z" stroke="#000" stroke-width="2" fill="#b8f5ed"/><use xlink:href="#i" transform="matrix(1,0,0,1,1145.0000000000005,531.6666666666281) translate(25.329427083333343 61.27777777777778)"/><use xlink:href="#b" transform="matrix(1,0,0,1,1145.0000000000005,531.6666666666281) translate(126.32769097222223 61.27777777777778)"/><path d="M1366.67 742.27c0 32.03-50.74 58-113.34 58S1140 774.3 1140 742.27s50.74-58 113.33-58c62.6 0 113.34 25.97 113.34 58z" stroke="#000" stroke-width="2" fill="#fff"/><use xlink:href="#j" transform="matrix(1,0,0,1,1145.0000000000005,689.272134378283) translate(18.28060763888889 44.71527777777778)"/><use xlink:href="#k" transform="matrix(1,0,0,1,1145.0000000000005,689.272134378283) translate(124.55230902777778 44.71527777777778)"/><use xlink:href="#l" transform="matrix(1,0,0,1,1145.0000000000005,689.272134378283) translate(48.02236111111112 76.98090277777777)"/><use xlink:href="#b" transform="matrix(1,0,0,1,1145.0000000000005,689.272134378283) translate(102.64475694444445 76.98090277777777)"/><path d="M511.88 635.84l141.6 115.86" stroke="#54c45e" stroke-width="4" fill="none"/><path d="M513.17 634.34l-2.5 3.06-2.58-2.1 4.46-1.45z" stroke="#54c45e" stroke-width=".05" fill="#54c45e"/><path d="M666.07 762l-13.97-5.45 5.87-7.17z" stroke="#54c45e" stroke-width="4" fill="#54c45e"/><path d="M721.22 645.6l5.65 88.76" stroke="#54c45e" stroke-width="4" fill="none"/><path d="M723.2 645.54l-3.95.25-.14-2.16 3.97-.05z" stroke="#54c45e" stroke-width=".05" fill="#54c45e"/><path d="M727.9 750.6l-5.52-13.95 9.25-.6z" stroke="#54c45e" stroke-width="4" fill="#54c45e"/><path d="M927.62 637.38L805.1 749.3" stroke="#54c45e" stroke-width="4" fill="none"/><path d="M931.3 636.7l-2.4 2.18-2.65-2.92.63-.58z" stroke="#54c45e" stroke-width=".05" fill="#54c45e"/><path d="M793.1 760.27l7.4-13.05 6.25 6.85z" stroke="#54c45e" stroke-width="4" fill="#54c45e"/><path d="M1164.78 623.97L839.58 768.3" stroke="#54c45e" stroke-width="4" fill="none"/><path d="M1167.5 623.7l1.22.68-3.2 1.4-1.6-3.6.65-.28z" stroke="#54c45e" stroke-width=".05" fill="#54c45e"/><path d="M824.72 774.9l11.16-10.04 3.76 8.48z" stroke="#54c45e" stroke-width="4" fill="#54c45e"/><path d="M1253.33 645.67v14.86" stroke="#54c45e" stroke-width="4" fill="none"/><path d="M1253.33 643.67l1.98-.03v2.08h-3.94v-2.1z" stroke="#54c45e" stroke-width=".05" fill="#54c45e"/><path d="M1253.33 676.8l-4.63-14.27h9.27z" stroke="#54c45e" stroke-width="4" fill="#54c45e"/><path d="M1032.56 640.2l160.12 188.33" stroke="#54c45e" stroke-width="4" fill="none"/><path d="M1034.1 638.97l-3 2.56-2-2.35 4.33-1z" stroke="#54c45e" stroke-width=".05" fill="#54c45e"/><path d="M1203.2 840.93l-12.76-7.87 7.06-6z" stroke="#54c45e" stroke-width="4" fill="#54c45e"/><path d="M1253.33 803.27v14.87" stroke="#54c45e" stroke-width="4" fill="none"/><path d="M1253.33 801.27l1.98-.02v2.07h-3.94v-2.1z" stroke="#54c45e" stroke-width=".05" fill="#54c45e"/><path d="M1253.33 834.4l-4.63-14.26h9.27z" stroke="#54c45e" stroke-width="4" fill="#54c45e"/><path d="M794.5 630.05l363.78 213.93" stroke="#54c45e" stroke-width="4" fill="none"/><path d="M795.56 628.38l-2 3.4-3.03-1.78 2.12-.9 2.3-1.1z" stroke="#54c45e" stroke-width=".05" fill="#54c45e"/><path d="M1172.3 852.22l-14.65-3.23 4.7-8z" stroke="#54c45e" stroke-width="4" fill="#54c45e"/><path d="M542.3 621.1l598.77 234.76" stroke="#54c45e" stroke-width="4" fill="none"/><path d="M543.06 619.3l-1.44 3.67-3.22-1.26 2.32-1.5 1.64-1.18z" stroke="#54c45e" stroke-width=".05" fill="#54c45e"/><path d="M1156.2 861.8l-14.96-.9 3.38-8.62z" stroke="#54c45e" stroke-width="4" fill="#54c45e"/><path d="M845.4 816c0 32.03-50.73 58-113.32 58-62.6 0-113.34-25.97-113.34-58s50.74-58 113.34-58 113.33 25.97 113.33 58z" stroke="#000" stroke-width="2" fill="#fff"/><use xlink:href="#m" transform="matrix(1,0,0,1,623.743320609992,762.9999999999612) translate(50.08941840277779 44.71527777777778)"/><use xlink:href="#e" transform="matrix(1,0,0,1,623.743320609992,762.9999999999612) translate(35.52236111111112 76.98090277777777)"/><use xlink:href="#b" transform="matrix(1,0,0,1,623.743320609992,762.9999999999612) translate(115.14475694444445 76.98090277777777)"/><path d="M1017.33 1100.67c0 32.03-50.74 58-113.33 58-62.6 0-113.33-25.97-113.33-58 0-32.04 50.74-58 113.33-58 62.6 0 113.33 25.96 113.33 58z" stroke="#000" stroke-width="2" fill="#fff"/><use xlink:href="#n" transform="matrix(1,0,0,1,795.6666666666669,1047.666666666628) translate(33.55296006944443 44.71527777777778)"/><use xlink:href="#o" transform="matrix(1,0,0,1,795.6666666666669,1047.666666666628) translate(87.13368923611111 44.71527777777778)"/><use xlink:href="#p" transform="matrix(1,0,0,1,795.6666666666669,1047.666666666628) translate(20.206605902777774 76.98090277777777)"/><use xlink:href="#b" transform="matrix(1,0,0,1,795.6666666666669,1047.666666666628) translate(130.4605121527778 76.98090277777777)"/><path d="M658.96 983l140.8 67.6" stroke="#54c45e" stroke-width="4" fill="none"/><path d="M659.86 981.24l-1.7 3.56-3.17-1.5 2.7-1.46 1.53-.9z" stroke="#54c45e" stroke-width=".05" fill="#54c45e"/><path d="M814.42 1057.65l-14.87-2 4.02-8.35z" stroke="#54c45e" stroke-width="4" fill="#54c45e"/><path d="M1175.2 944.8L1000.1 1045.4" stroke="#54c45e" stroke-width="4" fill="none"/><path d="M1176.07 943.42l3.1 1.37-3.04 1.73-1.97-3.42.6-.34z" stroke="#54c45e" stroke-width=".05" fill="#54c45e"/><path d="M986.02 1053.52l10.06-11.13 4.62 8.03z" stroke="#54c45e" stroke-width="4" fill="#54c45e"/><path d="M245.33 626.27c0 32.03-50.74 58-113.33 58-62.6 0-113.33-25.97-113.33-58s50.74-58 113.33-58c62.6 0 113.33 25.97 113.33 58z" stroke="#000" stroke-width="2" fill="#b8f5ed"/><use xlink:href="#q" transform="matrix(1,0,0,1,23.666666666666686,573.272134378283) translate(11.483940972222229 61.27777777777778)"/><use xlink:href="#r" transform="matrix(1,0,0,1,23.666666666666686,573.272134378283) translate(140.17317708333331 61.27777777777778)"/><path d="M245.33 758.27c0 32.03-50.74 58-113.33 58-62.6 0-113.33-25.97-113.33-58s50.74-58 113.33-58c62.6 0 113.33 25.97 113.33 58z" stroke="#000" stroke-width="2" fill="#fff"/><use xlink:href="#s" transform="matrix(1,0,0,1,23.666666666666686,705.272134378283) translate(9.585069444444457 61.27777777777778)"/><use xlink:href="#b" transform="matrix(1,0,0,1,23.666666666666686,705.272134378283) translate(142.0720486111111 61.27777777777778)"/><path d="M32.3 883.96h178.65M32.37 883.96H30.3" stroke="#54c45e" stroke-width="4" fill="none"/><path d="M227.2 883.96l-14.25 4.63v-9.28z" stroke="#54c45e" stroke-width="4" fill="#54c45e"/><use xlink:href="#t" transform="matrix(1,0,0,1,71.58491704748324,858.4442234527341) translate(0 17.22222222222222)"/><use xlink:href="#u" transform="matrix(1,0,0,1,71.58491704748324,858.4442234527341) translate(18.984375 17.22222222222222)"/><use xlink:href="#v" transform="matrix(1,0,0,1,71.58491704748324,858.4442234527341) translate(79.55729166666667 17.22222222222222)"/><path d="M32.3 960.67h178.65M32.37 960.67H30.3" stroke="#6db1ff" stroke-width="4" fill="none"/><path d="M227.2 960.67l-14.25 4.63v-9.27z" stroke="#6db1ff" stroke-width="4" fill="#6db1ff"/><use xlink:href="#w" transform="matrix(1,0,0,1,67.83925732526103,935.1562499999999) translate(0 17.22222222222222)"/><use xlink:href="#x" transform="matrix(1,0,0,1,67.83925732526103,935.1562499999999) translate(87.78645833333336 17.22222222222222)"/><path d="M245.33 480.94c0 32.03-50.74 58-113.33 58-62.6 0-113.33-25.97-113.33-58s50.74-58 113.33-58c62.6 0 113.33 25.97 113.33 58z" stroke="#000" stroke-width="2" fill="#cfe4ff"/><use xlink:href="#y" transform="matrix(1,0,0,1,23.666666666666686,427.93880104494974) translate(24.493923611111114 61.27777777777778)"/><use xlink:href="#z" transform="matrix(1,0,0,1,23.666666666666686,427.93880104494974) translate(112.17838541666667 61.27777777777778)"/><path d="M562.67 404.67c0 32.03-50.74 58-113.34 58S336 436.7 336 404.67c0-32.04 50.74-58 113.33-58 62.6 0 113.34 25.96 113.34 58z" stroke="#000" stroke-width="2" fill="#cfe4ff"/><use xlink:href="#A" transform="matrix(1,0,0,1,340.99999999999994,351.66666666662786) translate(21.732421875 61.27777777777778)"/><use xlink:href="#z" transform="matrix(1,0,0,1,340.99999999999994,351.66666666662786) translate(114.93988715277777 61.27777777777778)"/><path d="M830.67 404.67c0 32.03-50.74 58-113.34 58S604 436.7 604 404.67c0-32.04 50.74-58 113.33-58 62.6 0 113.34 25.96 113.34 58z" stroke="#000" stroke-width="2" fill="#cfe4ff"/><g><use xlink:href="#B" transform="matrix(1,0,0,1,609,351.66666666662786) translate(39.34180555555556 44.71527777777778)"/><use xlink:href="#C" transform="matrix(1,0,0,1,609,351.66666666662786) translate(103.29579861111111 44.71527777777778)"/><use xlink:href="#z" transform="matrix(1,0,0,1,609,351.66666666662786) translate(67.8411545138889 76.98090277777777)"/></g><path d="M1098.67 404.67c0 32.03-50.74 58-113.34 58S872 436.7 872 404.67c0-32.04 50.74-58 113.33-58 62.6 0 113.34 25.96 113.34 58z" stroke="#000" stroke-width="2" fill="#cfe4ff"/><g><use xlink:href="#D" transform="matrix(1,0,0,1,877.0000000000002,351.66666666662786) translate(41.39258680555556 44.71527777777778)"/><use xlink:href="#C" transform="matrix(1,0,0,1,877.0000000000002,351.66666666662786) translate(101.24501736111111 44.71527777777778)"/><use xlink:href="#z" transform="matrix(1,0,0,1,877.0000000000002,351.66666666662786) translate(67.8411545138889 76.98090277777777)"/></g><path d="M449.33 465.67v37.26" stroke="#6db1ff" stroke-width="4" fill="none"/><path d="M449.33 463.67l1.98-.03v2.08h-3.94v-2.1z" stroke="#6db1ff" stroke-width=".05" fill="#6db1ff"/><path d="M449.33 519.2l-4.63-14.27h9.27z" stroke="#6db1ff" stroke-width="4" fill="#6db1ff"/><path d="M717.33 465.67v37.26" stroke="#6db1ff" stroke-width="4" fill="none"/><path d="M717.33 463.67l1.98-.03v2.08h-3.94v-2.1z" stroke="#6db1ff" stroke-width=".05" fill="#6db1ff"/><path d="M717.33 519.2l-4.63-14.27h9.27z" stroke="#6db1ff" stroke-width="4" fill="#6db1ff"/><path d="M985.33 465.67v37.26" stroke="#6db1ff" stroke-width="4" fill="none"/><path d="M985.33 463.67l1.98-.03v2.08h-3.94v-2.1z" stroke="#6db1ff" stroke-width=".05" fill="#6db1ff"/><path d="M985.33 519.2l-4.63-14.27h9.27z" stroke="#6db1ff" stroke-width="4" fill="#6db1ff"/><path d="M106.33 362.7a6 6 0 0 1 6-6h39.33a6 6 0 0 1 6 6v24.9a6 6 0 0 1-6 6h-39.33a6 6 0 0 1-6-6z" fill="none"/><g><use xlink:href="#E" transform="matrix(1,0,0,1,111.33527777777778,361.7074468782831) translate(0 21.58376736111111)"/></g><path d="M1017.33 941.92c0 32.04-50.74 58-113.33 58-62.6 0-113.33-25.96-113.33-58 0-32.03 50.74-58 113.33-58 62.6 0 113.33 25.97 113.33 58z" stroke="#000" stroke-width="2" fill="#fff"/><g><use xlink:href="#F" transform="matrix(1,0,0,1,795.6666666666669,888.9248192160985) translate(10.794921875 61.27777777777778)"/><use xlink:href="#b" transform="matrix(1,0,0,1,795.6666666666669,888.9248192160985) translate(140.86219618055554 61.27777777777778)"/></g><path d="M799.55 865.42l20.25 14.83" stroke="#54c45e" stroke-width="4" fill="none"/><path d="M800.76 863.86l-2.33 3.18-2.72-2 .44-.13 4-1.5z" stroke="#54c45e" stroke-width=".05" fill="#54c45e"/><path d="M832.92 889.86l-14.25-4.7 5.48-7.47z" stroke="#54c45e" stroke-width="4" fill="#54c45e"/><path d="M904 1002.92v16" stroke="#54c45e" stroke-width="4" fill="none"/><path d="M904 1000.92l1.98-.02v2.08H902v-2.1z" stroke="#54c45e" stroke-width=".05" fill="#54c45e"/><path d="M904 1035.2l-4.63-14.27h9.26z" stroke="#54c45e" stroke-width="4" fill="#54c45e"/><defs><path d="M180 0v-1490h190v1322h690V0H180" id="G"/><path d="M158 0v-1118h180V0H158zm91-1301c-68 0-125-53-125-119s57-119 125-119c69 0 126 53 126 119s-57 119-126 119" id="H"/><path d="M678-1118v154H420V0H240v-964H20v-154h220v-149c0-194 155-293 318-293 85 0 141 18 168 30l-50 154c-19-6-47-17-97-17-111 0-159 58-159 166v109h258" id="I"/><path d="M628 24c-324 0-524-230-524-574 0-343 198-582 503-582 237 0 487 146 487 559v75H286c9 234 145 362 343 362 132 0 231-58 273-172l174 48C1024-91 857 24 628 24zM287-650h624c-17-190-120-322-304-322-192 0-309 151-320 322" id="J"/><path d="M613 24c-304 0-509-231-509-576 0-350 205-580 509-580 216 0 392 114 453 309l-173 49c-33-115-133-197-280-197-223 0-326 196-326 419 0 220 103 415 326 415 150 0 252-85 285-206l172 49C1010-95 832 24 613 24" id="K"/><path d="M140 405l46-156c120 36 205 19 263-150l32-93L54-1118h197c107 313 237 620 324 950 87-331 219-637 326-950h196L606 167c-68 178-176 259-334 259-64 0-113-12-132-21" id="L"/><path d="M338-1490V0H158v-1490h180" id="M"/><g id="a"><use transform="matrix(0.010850694444444444,0,0,0.010850694444444444,0,0)" xlink:href="#G"/><use transform="matrix(0.010850694444444444,0,0,0.010850694444444444,12.565104166666666,0)" xlink:href="#H"/><use transform="matrix(0.010850694444444444,0,0,0.010850694444444444,17.94704861111111,0)" xlink:href="#I"/><use transform="matrix(0.010850694444444444,0,0,0.010850694444444444,25.520833333333332,0)" xlink:href="#J"/><use transform="matrix(0.010850694444444444,0,0,0.010850694444444444,38.4765625,0)" xlink:href="#K"/><use transform="matrix(0.010850694444444444,0,0,0.010850694444444444,50.73784722222222,0)" xlink:href="#L"/><use transform="matrix(0.010850694444444444,0,0,0.010850694444444444,62.79296875,0)" xlink:href="#K"/><use transform="matrix(0.010850694444444444,0,0,0.010850694444444444,75.48828125,0)" xlink:href="#M"/><use transform="matrix(0.010850694444444444,0,0,0.010850694444444444,80.87022569444444,0)" xlink:href="#J"/></g><path d="M180 0v-1490h270l367 940c28 72 75 218 110 339 35-117 81-264 110-339l362-940h271V0h-187c2-448-5-837 7-1287-157 497-311 829-483 1287H842C666-458 514-784 354-1284c12 438 5 843 7 1284H180" id="N"/><path d="M613 24c-304 0-509-231-509-576 0-350 205-580 509-580 305 0 511 230 511 580 0 345-206 576-511 576zm0-161c226 0 329-195 329-415 0-222-103-419-329-419-223 0-326 196-326 419 0 220 103 415 326 415" id="O"/><path d="M577 24c-279 0-473-224-473-580 0-354 195-576 474-576 218 0 287 134 324 193h14v-551h180V0H922v-173h-20C865-111 790 24 577 24zm27-161c203 0 314-172 314-421 0-247-108-413-314-413-212 0-317 181-317 413 0 235 108 421 317 421" id="P"/><g id="b"><use transform="matrix(0.010850694444444444,0,0,0.010850694444444444,0,0)" xlink:href="#N"/><use transform="matrix(0.010850694444444444,0,0,0.010850694444444444,20.07378472222222,0)" xlink:href="#O"/><use transform="matrix(0.010850694444444444,0,0,0.010850694444444444,33.3984375,0)" xlink:href="#P"/><use transform="matrix(0.010850694444444444,0,0,0.010850694444444444,47.00520833333333,0)" xlink:href="#J"/><use transform="matrix(0.010850694444444444,0,0,0.010850694444444444,59.960937499999986,0)" xlink:href="#M"/></g><path d="M789 20c-398 0-667-293-667-764 0-473 273-766 655-766 315 0 558 198 612 487h-196c-61-191-204-311-415-311-262 0-471 207-471 590 0 380 208 588 482 588 249 0 420-165 425-427H828v-166h572v163c0 370-256 606-611 606" id="Q"/><path d="M657 26c-323 0-524-166-541-416h195c15 169 171 246 346 246 202 0 356-106 356-265 5-203-294-238-475-293-239-73-380-191-380-389 0-252 224-419 512-419 294 0 499 171 508 396H992c-17-145-151-228-328-228-193 0-321 102-321 242 0 156 175 211 284 241l149 41c160 44 422 134 422 412 0 244-197 432-541 432" id="R"/><path d="M180 0v-1490h510c348 0 508 209 508 474 0 266-160 477-507 477H370V0H180zm190-706h312c236 0 327-133 327-310 0-176-91-307-329-307H370v617" id="S"/><path d="M52 0l541-1490h220L1361 0h-200l-149-416H398L254 0H52zm404-582h497c-103-290-145-390-251-756-108 377-145 460-246 756" id="T"/><path d="M180 0v-1490h510c348 0 508 194 508 460 0 198-88 351-276 417L1256 0h-220L726-579c-117 2-238 0-356 1V0H180zm190-747h312c235 0 327-108 327-283 0-177-92-293-329-293H370v576" id="U"/><path d="M784 20c-382 0-662-292-662-764 0-473 280-766 662-766s660 293 660 766c0 282-99 499-260 629l192 255h-198L1049-33C969 2 880 20 784 20zm-62-486h198l156 205c112-98 183-261 183-483 0-383-209-590-475-590-268 0-477 208-477 590 0 380 209 588 477 588 54 0 106-9 154-25" id="V"/><g id="c"><use transform="matrix(0.010850694444444444,0,0,0.010850694444444444,0,0)" xlink:href="#Q"/><use transform="matrix(0.010850694444444444,0,0,0.010850694444444444,16.57986111111111,0)" xlink:href="#J"/><use transform="matrix(0.010850694444444444,0,0,0.010850694444444444,29.535590277777775,0)" xlink:href="#O"/><use transform="matrix(0.010850694444444444,0,0,0.010850694444444444,42.86024305555556,0)" xlink:href="#R"/><use transform="matrix(0.010850694444444444,0,0,0.010850694444444444,57.11805555555555,0)" xlink:href="#S"/><use transform="matrix(0.010850694444444444,0,0,0.010850694444444444,69.67230902777777,0)" xlink:href="#T"/><use transform="matrix(0.010850694444444444,0,0,0.010850694444444444,85.00434027777777,0)" xlink:href="#U"/><use transform="matrix(0.010850694444444444,0,0,0.010850694444444444,99.30555555555556,0)" xlink:href="#V"/><use transform="matrix(0.010850694444444444,0,0,0.010850694444444444,116.29774305555556,0)" xlink:href="#G"/></g><path d="M611 442c-248 0-391-105-460-228l146-94c47 65 117 165 314 165 178 0 307-82 307-266v-224h-17C863-141 792-18 576-18c-268 0-472-195-472-546 0-346 197-568 476-568 216 0 288 133 326 193h17v-179h175V29c0 289-215 413-487 413zm-5-620c203 0 314-146 314-390 0-237-108-403-314-403-213 0-319 180-319 403 0 230 109 390 319 390" id="W"/><path d="M158 0v-1118h174v172h12c41-113 157-188 290-188 26 0 70 2 91 3v181c-11-2-60-10-108-10-161 0-279 109-279 260V0H158" id="X"/><path d="M471 26C259 26 90-98 90-318c0-256 228-303 435-329 202-27 287-16 287-108 0-139-79-219-234-219-161 0-248 86-283 164l-173-57c86-203 278-265 451-265 150 0 419 46 419 395V0H815v-152h-12C765-73 660 26 471 26zm31-159c199 0 310-134 310-271v-155c-30 35-226 55-295 64-131 17-246 59-246 186 0 116 97 176 231 176" id="Y"/><path d="M158 418v-1536h174v179h20c37-59 106-193 324-193 279 0 474 222 474 576 0 356-194 580-473 580-213 0-288-135-325-197h-14v591H158zm492-555c209 0 317-186 317-421 0-232-105-413-317-413-206 0-314 166-314 413 0 249 111 421 314 421" id="Z"/><path d="M338-670V0H158v-1490h180v566c73-149 190-208 336-208 226 0 379 139 379 422V0H872v-695c0-172-96-275-252-275-161 0-282 109-282 300" id="aa"/><g id="d"><use transform="matrix(0.010850694444444444,0,0,0.010850694444444444,0,0)" xlink:href="#Q"/><use transform="matrix(0.010850694444444444,0,0,0.010850694444444444,16.57986111111111,0)" xlink:href="#J"/><use transform="matrix(0.010850694444444444,0,0,0.010850694444444444,29.535590277777775,0)" xlink:href="#O"/><use transform="matrix(0.010850694444444444,0,0,0.010850694444444444,42.86024305555556,0)" xlink:href="#W"/><use transform="matrix(0.010850694444444444,0,0,0.010850694444444444,56.48871527777778,0)" xlink:href="#X"/><use transform="matrix(0.010850694444444444,0,0,0.010850694444444444,64.85460069444444,0)" xlink:href="#Y"/><use transform="matrix(0.010850694444444444,0,0,0.010850694444444444,77.33289930555556,0)" xlink:href="#Z"/><use transform="matrix(0.010850694444444444,0,0,0.010850694444444444,90.93967013888889,0)" xlink:href="#aa"/><use transform="matrix(0.010850694444444444,0,0,0.010850694444444444,104.07986111111111,0)" xlink:href="#H"/><use transform="matrix(0.010850694444444444,0,0,0.010850694444444444,109.46180555555556,0)" xlink:href="#K"/><use transform="matrix(0.010850694444444444,0,0,0.010850694444444444,122.37413194444444,0)" xlink:href="#Y"/><use transform="matrix(0.010850694444444444,0,0,0.010850694444444444,134.85243055555554,0)" xlink:href="#M"/></g><path d="M180 0v-1490h224l606 953c40 63 108 177 176 312-27-437-7-821-13-1265h190V0h-226C860-448 622-778 356-1262c27 476 11 792 15 1262H180" id="ab"/><path d="M158 0v-1118h175l1 205c55-151 181-225 313-225 147 0 245 90 285 228 53-141 190-228 352-228 194 0 352 125 352 384V0h-181v-749c0-161-105-225-225-225-151 0-243 103-243 244V0H807v-767c0-124-93-207-219-207-131 0-250 92-250 270V0H158" id="ac"/><path d="M538 24C308 24 148-78 108-271l171-41c32 123 123 178 257 178 156 0 256-77 256-169 0-77-54-128-164-154l-186-44c-203-48-300-148-300-305 0-192 176-326 414-326 230 0 351 112 402 269l-163 42c-31-80-94-158-238-158-133 0-233 69-233 162 0 83 57 129 188 160l169 40c203 48 298 149 298 302 0 196-179 339-441 339" id="ad"/><g id="e"><use transform="matrix(0.010850694444444444,0,0,0.010850694444444444,0,0)" xlink:href="#ab"/><use transform="matrix(0.010850694444444444,0,0,0.010850694444444444,16.74262152777778,0)" xlink:href="#Y"/><use transform="matrix(0.010850694444444444,0,0,0.010850694444444444,29.22092013888889,0)" xlink:href="#ac"/><use transform="matrix(0.010850694444444444,0,0,0.010850694444444444,48.68706597222222,0)" xlink:href="#J"/><use transform="matrix(0.010850694444444444,0,0,0.010850694444444444,61.642795138888886,0)" xlink:href="#ad"/></g><g id="f"><use transform="matrix(0.010850694444444444,0,0,0.010850694444444444,0,0)" xlink:href="#T"/><use transform="matrix(0.010850694444444444,0,0,0.010850694444444444,15.33203125,0)" xlink:href="#P"/><use transform="matrix(0.010850694444444444,0,0,0.010850694444444444,28.938802083333332,0)" xlink:href="#P"/><use transform="matrix(0.010850694444444444,0,0,0.010850694444444444,42.545572916666664,0)" xlink:href="#X"/><use transform="matrix(0.010850694444444444,0,0,0.010850694444444444,50.54253472222221,0)" xlink:href="#J"/><use transform="matrix(0.010850694444444444,0,0,0.010850694444444444,63.49826388888888,0)" xlink:href="#ad"/><use transform="matrix(0.010850694444444444,0,0,0.010850694444444444,75.22786458333333,0)" xlink:href="#ad"/></g><g id="g"><use transform="matrix(0.010850694444444444,0,0,0.010850694444444444,0,0)" xlink:href="#U"/><use transform="matrix(0.010850694444444444,0,0,0.010850694444444444,13.975694444444445,0)" xlink:href="#O"/><use transform="matrix(0.010850694444444444,0,0,0.010850694444444444,27.517361111111104,0)" xlink:href="#Y"/><use transform="matrix(0.010850694444444444,0,0,0.010850694444444444,39.995659722222214,0)" xlink:href="#P"/></g><g id="h"><use transform="matrix(0.010850694444444444,0,0,0.010850694444444444,0,0)" xlink:href="#ab"/><use transform="matrix(0.010850694444444444,0,0,0.010850694444444444,16.74262152777778,0)" xlink:href="#Y"/><use transform="matrix(0.010850694444444444,0,0,0.010850694444444444,29.22092013888889,0)" xlink:href="#ac"/><use transform="matrix(0.010850694444444444,0,0,0.010850694444444444,48.68706597222222,0)" xlink:href="#J"/><use transform="matrix(0.010850694444444444,0,0,0.010850694444444444,61.642795138888886,0)" xlink:href="#ad"/></g><path d="M783 20c-382 0-661-292-661-764 0-473 279-766 661-766 302 0 548 182 601 489h-190c-42-204-217-313-411-313-268 0-476 208-476 590 0 381 209 588 476 588 195 0 369-110 411-313h190c-52 303-296 489-601 489" id="ae"/><path d="M598-1118v154H368v674c0 100 37 144 132 144 23 0 62-6 92-12L629-6c-37 13-88 20-134 20-193 0-307-107-307-290v-688H20v-154h168v-266h180v266h230" id="af"/><g id="i"><use transform="matrix(0.010850694444444444,0,0,0.010850694444444444,0,0)" xlink:href="#ae"/><use transform="matrix(0.010850694444444444,0,0,0.010850694444444444,16.23263888888889,0)" xlink:href="#Y"/><use transform="matrix(0.010850694444444444,0,0,0.010850694444444444,28.7109375,0)" xlink:href="#P"/><use transform="matrix(0.010850694444444444,0,0,0.010850694444444444,42.31770833333333,0)" xlink:href="#Y"/><use transform="matrix(0.010850694444444444,0,0,0.010850694444444444,54.79600694444444,0)" xlink:href="#ad"/><use transform="matrix(0.010850694444444444,0,0,0.010850694444444444,66.52560763888889,0)" xlink:href="#af"/><use transform="matrix(0.010850694444444444,0,0,0.010850694444444444,73.79557291666666,0)" xlink:href="#X"/><use transform="matrix(0.010850694444444444,0,0,0.010850694444444444,81.79253472222221,0)" xlink:href="#J"/></g><g id="j"><use transform="matrix(0.010850694444444444,0,0,0.010850694444444444,0,0)" xlink:href="#ae"/><use transform="matrix(0.010850694444444444,0,0,0.010850694444444444,16.23263888888889,0)" xlink:href="#Y"/><use transform="matrix(0.010850694444444444,0,0,0.010850694444444444,28.7109375,0)" xlink:href="#P"/><use transform="matrix(0.010850694444444444,0,0,0.010850694444444444,42.31770833333333,0)" xlink:href="#Y"/><use transform="matrix(0.010850694444444444,0,0,0.010850694444444444,54.79600694444444,0)" xlink:href="#ad"/><use transform="matrix(0.010850694444444444,0,0,0.010850694444444444,66.52560763888889,0)" xlink:href="#af"/><use transform="matrix(0.010850694444444444,0,0,0.010850694444444444,73.79557291666666,0)" xlink:href="#X"/><use transform="matrix(0.010850694444444444,0,0,0.010850694444444444,82.16145833333333,0)" xlink:href="#Y"/><use transform="matrix(0.010850694444444444,0,0,0.010850694444444444,94.63975694444444,0)" xlink:href="#M"/></g><path d="M537 14c-226 0-379-139-379-422v-710h180v695c0 172 97 275 253 275 160 0 281-109 281-300v-670h181V0H879v-209C806-46 684 14 537 14" id="ag"/><path d="M481 0L54-1118h197c107 314 236 620 325 951 87-331 217-637 324-951h197L670 0H481" id="ah"/><g id="k"><use transform="matrix(0.010850694444444444,0,0,0.010850694444444444,0,0)" xlink:href="#R"/><use transform="matrix(0.010850694444444444,0,0,0.010850694444444444,14.2578125,0)" xlink:href="#ag"/><use transform="matrix(0.010850694444444444,0,0,0.010850694444444444,27.39800347222222,0)" xlink:href="#X"/><use transform="matrix(0.010850694444444444,0,0,0.010850694444444444,36.11111111111111,0)" xlink:href="#ah"/><use transform="matrix(0.010850694444444444,0,0,0.010850694444444444,48.166232638888886,0)" xlink:href="#J"/><use transform="matrix(0.010850694444444444,0,0,0.010850694444444444,60.68793402777778,0)" xlink:href="#L"/></g><path d="M645 0H180v-1490h484c435 0 692 280 692 742 0 466-257 748-711 748zM370-168h263c363 0 539-218 539-580 0-358-176-574-521-574H370v1154" id="ai"/><g id="l"><use transform="matrix(0.010850694444444444,0,0,0.010850694444444444,0,0)" xlink:href="#ai"/><use transform="matrix(0.010850694444444444,0,0,0.010850694444444444,16.03732638888889,0)" xlink:href="#Y"/><use transform="matrix(0.010850694444444444,0,0,0.010850694444444444,28.515625,0)" xlink:href="#af"/><use transform="matrix(0.010850694444444444,0,0,0.010850694444444444,35.89409722222222,0)" xlink:href="#Y"/></g><path d="M338-670V0H158v-1118h173l1 207c72-158 192-221 342-221 226 0 378 139 378 422V0H872v-695c0-172-96-275-252-275-161 0-282 109-282 300" id="aj"/><g id="m"><use transform="matrix(0.010850694444444444,0,0,0.010850694444444444,0,0)" xlink:href="#ae"/><use transform="matrix(0.010850694444444444,0,0,0.010850694444444444,16.23263888888889,0)" xlink:href="#O"/><use transform="matrix(0.010850694444444444,0,0,0.010850694444444444,29.557291666666664,0)" xlink:href="#ac"/><use transform="matrix(0.010850694444444444,0,0,0.010850694444444444,49.0234375,0)" xlink:href="#Z"/><use transform="matrix(0.010850694444444444,0,0,0.010850694444444444,62.63020833333333,0)" xlink:href="#O"/><use transform="matrix(0.010850694444444444,0,0,0.010850694444444444,75.9548611111111,0)" xlink:href="#ag"/><use transform="matrix(0.010850694444444444,0,0,0.010850694444444444,89.09505208333331,0)" xlink:href="#aj"/><use transform="matrix(0.010850694444444444,0,0,0.010850694444444444,102.22439236111109,0)" xlink:href="#P"/></g><path d="M458 0L52-1490h194c108 439 233 855 324 1313 92-459 221-873 331-1313h216c110 438 234 854 330 1307 92-455 216-869 323-1307h196L1558 0h-221l-256-944c-26-95-50-200-73-331-22 122-44 223-73 331L680 0H458" id="ak"/><path d="M677 24c-213 0-288-135-325-197h-20V0H158v-1490h180v551h14c37-59 106-193 324-193 279 0 474 222 474 576 0 356-194 580-473 580zm-27-161c209 0 317-186 317-421 0-232-105-413-317-413-206 0-314 166-314 413 0 249 111 421 314 421" id="al"/><g id="n"><use transform="matrix(0.010850694444444444,0,0,0.010850694444444444,0,0)" xlink:href="#ak"/><use transform="matrix(0.010850694444444444,0,0,0.010850694444444444,20.768229166666668,0)" xlink:href="#J"/><use transform="matrix(0.010850694444444444,0,0,0.010850694444444444,33.723958333333336,0)" xlink:href="#al"/></g><path d="M784 20c-382 0-662-292-662-764 0-473 280-766 662-766s660 293 660 766c0 472-278 764-660 764zm0-176c266 0 475-207 475-588 0-383-209-590-475-590-268 0-477 208-477 590 0 380 209 588 477 588" id="am"/><g id="o"><use transform="matrix(0.010850694444444444,0,0,0.010850694444444444,0,0)" xlink:href="#am"/><use transform="matrix(0.010850694444444444,0,0,0.010850694444444444,16.9921875,0)" xlink:href="#aj"/><use transform="matrix(0.010850694444444444,0,0,0.010850694444444444,30.121527777777775,0)" xlink:href="#af"/><use transform="matrix(0.010850694444444444,0,0,0.010850694444444444,37.174479166666664,0)" xlink:href="#O"/><use transform="matrix(0.010850694444444444,0,0,0.010850694444444444,50.49913194444444,0)" xlink:href="#M"/><use transform="matrix(0.010850694444444444,0,0,0.010850694444444444,55.881076388888886,0)" xlink:href="#O"/><use transform="matrix(0.010850694444444444,0,0,0.010850694444444444,69.20572916666666,0)" xlink:href="#W"/><use transform="matrix(0.010850694444444444,0,0,0.010850694444444444,82.83420138888889,0)" xlink:href="#L"/></g><g id="p"><use transform="matrix(0.010850694444444444,0,0,0.010850694444444444,0,0)" xlink:href="#G"/><use transform="matrix(0.010850694444444444,0,0,0.010850694444444444,12.565104166666666,0)" xlink:href="#Y"/><use transform="matrix(0.010850694444444444,0,0,0.010850694444444444,25.04340277777778,0)" xlink:href="#aj"/><use transform="matrix(0.010850694444444444,0,0,0.010850694444444444,38.17274305555556,0)" xlink:href="#W"/><use transform="matrix(0.010850694444444444,0,0,0.010850694444444444,51.80121527777778,0)" xlink:href="#ag"/><use transform="matrix(0.010850694444444444,0,0,0.010850694444444444,64.94140625,0)" xlink:href="#Y"/><use transform="matrix(0.010850694444444444,0,0,0.010850694444444444,77.41970486111111,0)" xlink:href="#W"/><use transform="matrix(0.010850694444444444,0,0,0.010850694444444444,91.04817708333334,0)" xlink:href="#J"/></g><g id="q"><use transform="matrix(0.010850694444444444,0,0,0.010850694444444444,0,0)" xlink:href="#ae"/><use transform="matrix(0.010850694444444444,0,0,0.010850694444444444,16.23263888888889,0)" xlink:href="#O"/><use transform="matrix(0.010850694444444444,0,0,0.010850694444444444,29.557291666666664,0)" xlink:href="#ac"/><use transform="matrix(0.010850694444444444,0,0,0.010850694444444444,49.0234375,0)" xlink:href="#Z"/><use transform="matrix(0.010850694444444444,0,0,0.010850694444444444,62.63020833333333,0)" xlink:href="#O"/><use transform="matrix(0.010850694444444444,0,0,0.010850694444444444,75.9548611111111,0)" xlink:href="#aj"/><use transform="matrix(0.010850694444444444,0,0,0.010850694444444444,89.08420138888887,0)" xlink:href="#J"/><use transform="matrix(0.010850694444444444,0,0,0.010850694444444444,102.03993055555556,0)" xlink:href="#aj"/><use transform="matrix(0.010850694444444444,0,0,0.010850694444444444,115.16927083333331,0)" xlink:href="#af"/></g><g id="r"><use transform="matrix(0.010850694444444444,0,0,0.010850694444444444,0,0)" xlink:href="#N"/><use transform="matrix(0.010850694444444444,0,0,0.010850694444444444,20.07378472222222,0)" xlink:href="#O"/><use transform="matrix(0.010850694444444444,0,0,0.010850694444444444,33.3984375,0)" xlink:href="#P"/><use transform="matrix(0.010850694444444444,0,0,0.010850694444444444,47.00520833333333,0)" xlink:href="#J"/><use transform="matrix(0.010850694444444444,0,0,0.010850694444444444,59.960937499999986,0)" xlink:href="#M"/></g><path d="M180 0v-1490h528c311 0 458 177 458 395 0 191-114 278-244 313v14c139 9 302 137 302 371 0 225-148 397-499 397H180zm190-168h350c232 0 321-102 321-231 0-149-120-277-311-277H370v508zm0-668h328c160 0 286-101 286-255 0-129-87-231-280-231H370v486" id="an"/><path d="M158 0v-1490h180v865h22l478-493h223L593-638 1096 0H865L456-523 338-412V0H158" id="ao"/><g id="s"><use transform="matrix(0.010850694444444444,0,0,0.010850694444444444,0,0)" xlink:href="#an"/><use transform="matrix(0.010850694444444444,0,0,0.010850694444444444,14.539930555555555,0)" xlink:href="#Y"/><use transform="matrix(0.010850694444444444,0,0,0.010850694444444444,27.018229166666664,0)" xlink:href="#K"/><use transform="matrix(0.010850694444444444,0,0,0.010850694444444444,39.713541666666664,0)" xlink:href="#ao"/><use transform="matrix(0.010850694444444444,0,0,0.010850694444444444,51.41059027777778,0)" xlink:href="#W"/><use transform="matrix(0.010850694444444444,0,0,0.010850694444444444,65.0390625,0)" xlink:href="#X"/><use transform="matrix(0.010850694444444444,0,0,0.010850694444444444,73.03602430555556,0)" xlink:href="#O"/><use transform="matrix(0.010850694444444444,0,0,0.010850694444444444,86.36067708333333,0)" xlink:href="#ag"/><use transform="matrix(0.010850694444444444,0,0,0.010850694444444444,99.50086805555556,0)" xlink:href="#aj"/><use transform="matrix(0.010850694444444444,0,0,0.010850694444444444,112.63020833333331,0)" xlink:href="#P"/></g><path fill="#54c45e" d="M128 0v-1118h300V0H128zm150-1264c-91 0-165-68-165-154 0-85 74-154 165-154 90 0 165 69 165 154 0 86-75 154-165 154" id="ap"/><path fill="#54c45e" d="M572 22C302 22 117-98 78-306l279-48c29 105 101 156 224 156 114 0 185-48 185-115 0-118-228-130-337-155-215-49-322-150-322-317 0-215 187-347 470-347 265 0 424 116 466 298l-266 47c-24-76-87-130-196-130-98 0-174 46-174 113 0 56 38 95 144 117l201 40c216 44 320 143 320 302 0 220-207 367-500 367" id="aq"/><g id="t"><use transform="matrix(0.008680555555555556,0,0,0.008680555555555556,0,0)" xlink:href="#ap"/><use transform="matrix(0.008680555555555556,0,0,0.008680555555555556,4.817708333333334,0)" xlink:href="#aq"/></g><path fill="#54c45e" d="M128 418v-1536h295v188h14c41-89 129-202 319-202 248 0 453 193 453 575 0 372-197 576-455 576-183 0-275-108-317-198h-9v597H128zm534-640c156 0 240-139 240-336 0-196-83-334-240-334-154 0-241 131-241 334 0 202 88 336 241 336" id="ar"/><path fill="#54c45e" d="M128 0v-1118h290v195h12c54-169 184-238 367-200v268c-27-8-86-15-130-15-138 0-239 95-239 234V0H128" id="as"/><path fill="#54c45e" d="M628 22C291 22 81-210 81-554c0-346 210-578 547-578 336 0 547 232 547 578 0 344-211 576-547 576zm0-236c160 0 242-146 242-341 0-197-82-341-242-341S387-753 387-555c0 195 81 341 241 341" id="at"/><path fill="#54c45e" d="M750-1118v229H516V0H217v-889H20v-229h197v-86c0-238 156-356 363-356 94 0 178 20 215 31l-54 226c-25-7-61-15-100-15-123-3-131 84-125 200h234" id="au"/><path fill="#54c45e" d="M428-1490V0H128v-1490h300" id="av"/><path fill="#54c45e" d="M633 22C291 22 81-200 81-553c0-345 210-579 537-579 292 0 525 185 525 567v84H378c7 183 109 277 260 277 105 0 184-46 216-132l272 51C1071-99 893 22 633 22zM380-669h474c-15-146-94-237-233-237-143 0-229 99-241 237" id="aw"/><g id="u"><use transform="matrix(0.008680555555555556,0,0,0.008680555555555556,0,0)" xlink:href="#ar"/><use transform="matrix(0.008680555555555556,0,0,0.008680555555555556,11.206597222222223,0)" xlink:href="#as"/><use transform="matrix(0.008680555555555556,0,0,0.008680555555555556,18.01215277777778,0)" xlink:href="#at"/><use transform="matrix(0.008680555555555556,0,0,0.008680555555555556,28.914930555555557,0)" xlink:href="#au"/><use transform="matrix(0.008680555555555556,0,0,0.008680555555555556,36.13715277777778,0)" xlink:href="#ap"/><use transform="matrix(0.008680555555555556,0,0,0.008680555555555556,40.954861111111114,0)" xlink:href="#av"/><use transform="matrix(0.008680555555555556,0,0,0.008680555555555556,45.77256944444445,0)" xlink:href="#aw"/></g><g id="v"><use transform="matrix(0.008680555555555556,0,0,0.008680555555555556,0,0)" xlink:href="#at"/><use transform="matrix(0.008680555555555556,0,0,0.008680555555555556,10.902777777777779,0)" xlink:href="#au"/></g><path fill="#6db1ff" d="M628 22C291 22 81-210 81-554c0-346 210-578 547-578 265 0 455 142 497 372l-279 52c-25-116-99-188-215-188-160 0-244 139-244 341 0 200 84 341 244 341 116 0 193-74 217-195l279 51C1085-123 896 22 628 22" id="ax"/><path fill="#6db1ff" d="M628 22C291 22 81-210 81-554c0-346 210-578 547-578 336 0 547 232 547 578 0 344-211 576-547 576zm0-236c160 0 242-146 242-341 0-197-82-341-242-341S387-753 387-555c0 195 81 341 241 341" id="ay"/><path fill="#6db1ff" d="M428-647V0H128v-1118h283l4 231c63-156 176-245 348-245 232 0 384 159 384 421V0H847v-659c0-139-76-222-202-222-128 0-217 86-217 234" id="az"/><path fill="#6db1ff" d="M750-1118v229H516V0H217v-889H20v-229h197v-86c0-238 156-356 363-356 94 0 178 20 215 31l-54 226c-25-7-61-15-100-15-123-3-131 84-125 200h234" id="aA"/><path fill="#6db1ff" d="M128 0v-1118h290v195h12c54-169 184-238 367-200v268c-27-8-86-15-130-15-138 0-239 95-239 234V0H128" id="aB"/><path fill="#6db1ff" d="M128 0v-1118h278l12 217c60-163 185-234 319-234 143 0 236 81 288 251 63-172 205-251 359-251 205 0 357 138 357 381V0h-301v-697c0-126-76-187-177-187-114 0-184 79-184 196V0H789v-705c0-109-72-179-174-179-106 0-187 74-187 208V0H128" id="aC"/><path fill="#6db1ff" d="M572 22C302 22 117-98 78-306l279-48c29 105 101 156 224 156 114 0 185-48 185-115 0-118-228-130-337-155-215-49-322-150-322-317 0-215 187-347 470-347 265 0 424 116 466 298l-266 47c-24-76-87-130-196-130-98 0-174 46-174 113 0 56 38 95 144 117l201 40c216 44 320 143 320 302 0 220-207 367-500 367" id="aD"/><g id="w"><use transform="matrix(0.008680555555555556,0,0,0.008680555555555556,0,0)" xlink:href="#ax"/><use transform="matrix(0.008680555555555556,0,0,0.008680555555555556,10.460069444444445,0)" xlink:href="#ay"/><use transform="matrix(0.008680555555555556,0,0,0.008680555555555556,21.36284722222222,0)" xlink:href="#az"/><use transform="matrix(0.008680555555555556,0,0,0.008680555555555556,32.43055555555556,0)" xlink:href="#aA"/><use transform="matrix(0.008680555555555556,0,0,0.008680555555555556,39.12326388888889,0)" xlink:href="#ay"/><use transform="matrix(0.008680555555555556,0,0,0.008680555555555556,50.02604166666667,0)" xlink:href="#aB"/><use transform="matrix(0.008680555555555556,0,0,0.008680555555555556,57.39583333333334,0)" xlink:href="#aC"/><use transform="matrix(0.008680555555555556,0,0,0.008680555555555556,73.61979166666669,0)" xlink:href="#aD"/></g><path fill="#6db1ff" d="M683-1118v229H474v562c0 71 29 104 102 104 23 0 73-7 95-13l43 225C647 9 580 16 520 16 296 16 174-96 174-301v-588H20v-229h154v-266h300v266h209" id="aE"/><g id="x"><use transform="matrix(0.008680555555555556,0,0,0.008680555555555556,0,0)" xlink:href="#aE"/><use transform="matrix(0.008680555555555556,0,0,0.008680555555555556,6.336805555555556,0)" xlink:href="#ay"/></g><g id="y"><use transform="matrix(0.010850694444444444,0,0,0.010850694444444444,0,0)" xlink:href="#S"/><use transform="matrix(0.010850694444444444,0,0,0.010850694444444444,14.192708333333332,0)" xlink:href="#X"/><use transform="matrix(0.010850694444444444,0,0,0.010850694444444444,22.90581597222222,0)" xlink:href="#H"/><use transform="matrix(0.010850694444444444,0,0,0.010850694444444444,28.287760416666664,0)" xlink:href="#ac"/><use transform="matrix(0.010850694444444444,0,0,0.010850694444444444,47.75390625,0)" xlink:href="#Y"/><use transform="matrix(0.010850694444444444,0,0,0.010850694444444444,60.23220486111112,0)" xlink:href="#X"/><use transform="matrix(0.010850694444444444,0,0,0.010850694444444444,68.9453125,0)" xlink:href="#L"/></g><g id="z"><use transform="matrix(0.010850694444444444,0,0,0.010850694444444444,0,0)" xlink:href="#ai"/><use transform="matrix(0.010850694444444444,0,0,0.010850694444444444,16.03732638888889,0)" xlink:href="#Y"/><use transform="matrix(0.010850694444444444,0,0,0.010850694444444444,28.515625,0)" xlink:href="#af"/><use transform="matrix(0.010850694444444444,0,0,0.010850694444444444,35.89409722222222,0)" xlink:href="#Y"/><use transform="matrix(0.010850694444444444,0,0,0.010850694444444444,48.37239583333333,0)" xlink:href="#ad"/><use transform="matrix(0.010850694444444444,0,0,0.010850694444444444,60.10199652777778,0)" xlink:href="#J"/><use transform="matrix(0.010850694444444444,0,0,0.010850694444444444,73.05772569444444,0)" xlink:href="#af"/></g><g id="A"><use transform="matrix(0.010850694444444444,0,0,0.010850694444444444,0,0)" xlink:href="#T"/><use transform="matrix(0.010850694444444444,0,0,0.010850694444444444,15.33203125,0)" xlink:href="#P"/><use transform="matrix(0.010850694444444444,0,0,0.010850694444444444,28.938802083333332,0)" xlink:href="#P"/><use transform="matrix(0.010850694444444444,0,0,0.010850694444444444,42.545572916666664,0)" xlink:href="#X"/><use transform="matrix(0.010850694444444444,0,0,0.010850694444444444,50.54253472222221,0)" xlink:href="#J"/><use transform="matrix(0.010850694444444444,0,0,0.010850694444444444,63.49826388888888,0)" xlink:href="#ad"/><use transform="matrix(0.010850694444444444,0,0,0.010850694444444444,75.22786458333333,0)" xlink:href="#ad"/></g><g id="B"><use transform="matrix(0.010850694444444444,0,0,0.010850694444444444,0,0)" xlink:href="#S"/><use transform="matrix(0.010850694444444444,0,0,0.010850694444444444,14.192708333333332,0)" xlink:href="#M"/><use transform="matrix(0.010850694444444444,0,0,0.010850694444444444,19.57465277777778,0)" xlink:href="#Y"/><use transform="matrix(0.010850694444444444,0,0,0.010850694444444444,32.052951388888886,0)" xlink:href="#K"/><use transform="matrix(0.010850694444444444,0,0,0.010850694444444444,44.748263888888886,0)" xlink:href="#J"/></g><g id="C"><use transform="matrix(0.010850694444444444,0,0,0.010850694444444444,0,0)" xlink:href="#ab"/><use transform="matrix(0.010850694444444444,0,0,0.010850694444444444,16.74262152777778,0)" xlink:href="#Y"/><use transform="matrix(0.010850694444444444,0,0,0.010850694444444444,29.22092013888889,0)" xlink:href="#ac"/><use transform="matrix(0.010850694444444444,0,0,0.010850694444444444,48.68706597222222,0)" xlink:href="#J"/><use transform="matrix(0.010850694444444444,0,0,0.010850694444444444,61.642795138888886,0)" xlink:href="#ad"/></g><g id="D"><use transform="matrix(0.010850694444444444,0,0,0.010850694444444444,0,0)" xlink:href="#U"/><use transform="matrix(0.010850694444444444,0,0,0.010850694444444444,13.975694444444445,0)" xlink:href="#O"/><use transform="matrix(0.010850694444444444,0,0,0.010850694444444444,27.517361111111104,0)" xlink:href="#Y"/><use transform="matrix(0.010850694444444444,0,0,0.010850694444444444,39.995659722222214,0)" xlink:href="#P"/></g><path d="M135 0v-1490h305c1 251 0 501-5 746 157-254 405-512 598-746h373L849-845 1422 0h-361L638-644 440-426V0H135" id="aF"/><path d="M633 22C291 22 81-200 81-553c0-345 210-579 537-579 292 0 525 185 525 567v84H378c7 183 109 277 260 277 105 0 184-46 216-132l272 51C1071-99 893 22 633 22zM380-669h474c-15-146-94-237-233-237-143 0-229 99-241 237" id="aG"/><path d="M120 396l69-226c123 42 245 23 254-107l8-60L31-1118h319c87 288 199 559 259 872 72-308 185-583 277-872h315L726 132c-68 181-186 294-410 294-79 0-153-13-196-30" id="aH"/><g id="E"><use transform="matrix(0.010850694444444444,0,0,0.010850694444444444,0,0)" xlink:href="#aF"/><use transform="matrix(0.010850694444444444,0,0,0.010850694444444444,15.104166666666666,0)" xlink:href="#aG"/><use transform="matrix(0.010850694444444444,0,0,0.010850694444444444,27.940538194444443,0)" xlink:href="#aH"/><path d="M-1.1 4.54h43.53V6.6H-1.1z"/></g><path d="M295 13c-75 0-135-60-135-135s60-135 135-135 135 60 135 135S370 13 295 13" id="aI"/><g id="F"><use transform="matrix(0.010850694444444444,0,0,0.010850694444444444,0,0)" xlink:href="#ad"/><use transform="matrix(0.010850694444444444,0,0,0.010850694444444444,11.729600694444445,0)" xlink:href="#K"/><use transform="matrix(0.010850694444444444,0,0,0.010850694444444444,24.424913194444443,0)" xlink:href="#aa"/><use transform="matrix(0.010850694444444444,0,0,0.010850694444444444,37.565104166666664,0)" xlink:href="#J"/><use transform="matrix(0.010850694444444444,0,0,0.010850694444444444,50.52083333333333,0)" xlink:href="#ac"/><use transform="matrix(0.010850694444444444,0,0,0.010850694444444444,69.98697916666666,0)" xlink:href="#Y"/><use transform="matrix(0.010850694444444444,0,0,0.010850694444444444,82.46527777777777,0)" xlink:href="#aI"/><use transform="matrix(0.010850694444444444,0,0,0.010850694444444444,88.8671875,0)" xlink:href="#O"/><use transform="matrix(0.010850694444444444,0,0,0.010850694444444444,102.19184027777777,0)" xlink:href="#X"/><use transform="matrix(0.010850694444444444,0,0,0.010850694444444444,110.18880208333333,0)" xlink:href="#W"/></g></defs></g></svg>