<svg xmlns="http://www.w3.org/2000/svg" xmlns:xlink="http://www.w3.org/1999/xlink" xmlns:lucid="lucid" width="1173.44" height="566.78"><g transform="translate(-390.22910537754996 -490.33333333333326)" lucid:page-tab-id="0_0"><path d="M537 1026.22a6 6 0 0 1 6-6h181a6 6 0 0 1 6 6v24.9a6 6 0 0 1-6 6H543a6 6 0 0 1-6-6z" fill="none"/><use xlink:href="#a" transform="matrix(1,0,0,1,541.9999999999612,1025.2176562500003) translate(0 21.58376736111111)"/><use xlink:href="#b" transform="matrix(1,0,0,1,541.9999999999612,1025.2176562500003) translate(77.3220486111111 21.58376736111111)"/><path d="M1045.38 1026.22a6 6 0 0 1 6-6h487.77a6 6 0 0 1 6 6v24.9a6 6 0 0 1-6 6h-487.77a6 6 0 0 1-6-6z" fill="none"/><use xlink:href="#c" transform="matrix(1,0,0,1,1050.3810853745028,1025.2176562500003) translate(0 21.58376736111111)"/><use xlink:href="#d" transform="matrix(1,0,0,1,1050.3810853745028,1025.2176562500003) translate(134.21223958333331 21.58376736111111)"/><use xlink:href="#e" transform="matrix(1,0,0,1,1050.3810853745028,1025.2176562500003) translate(154.77430555555554 21.58376736111111)"/><use xlink:href="#f" transform="matrix(1,0,0,1,1050.3810853745028,1025.2176562500003) translate(305.39279513888886 21.58376736111111)"/><use xlink:href="#g" transform="matrix(1,0,0,1,1050.3810853745028,1025.2176562500003) translate(414.5073784722222 21.58376736111111)"/><path d="M565.52 590.35A28.27 28.27 0 0 1 577 587.9h293a1.28 1.28 0 0 1 .53 2.47L706.8 663.8a28.4 28.4 0 0 1-11.46 2.48L397 667.88a1.26 1.26 0 0 1-.5-2.4z" stroke="#000" stroke-width="2" fill="#c3f7c8"/><path d="M565.52 850.03A28.27 28.27 0 0 1 577 847.6h293a1.28 1.28 0 0 1 .53 2.45L706.8 923.47a28.4 28.4 0 0 1-11.46 2.5L397 927.56a1.26 1.26 0 0 1-.5-2.4z" stroke="#000" stroke-width="2" fill="#54c45e"/><path d="M395.55 668.84v4.73m0 4.72v9.45m0 4.72v9.46m0 4.72v9.46m0 4.73v9.45m0 4.73v9.46m0 4.73v9.44m0 4.73v9.45m0 4.73V787m0 4.73v10.04m0 5.32v10.63m0 5.32v10.64m0 5.3v10.65m0 5.32v10.64m0 5.33v10.65m0 5.3v10.65m0 5.33v5.3" stroke="#3a414a" fill="none"/><path d="M395.35 668.18l.48.4.2.07v.2h-.95v-1.05zm-.27-2.73v-.1h.05z" stroke="#3a414a" stroke-width=".05" fill="#3a414a"/><path d="M395.55 922.94l-4.63-14.27h9.27z" stroke="#3a414a" fill="#3a414a"/><path d="M699.7 667.42v5.06m0 5.06v10.12m0 5.06v10.1m0 5.07V718m0 5.07v10.1m0 5.07v10.12m0 5.05v10.13m0 5.06v10.1m0 5.06v10.12m0 5.06v10.12m0 5.05v10.13m0 5.06v10.1m0 5.06v10.12m0 5.06v10.12m0 5.05v10.13m0 5.06v10.1m0 5.06v5.06" stroke="#3a414a" fill="none"/><path d="M700.18 667.44h-.95V667l.95-.15z" stroke="#3a414a" stroke-width=".05" fill="#3a414a"/><path d="M699.7 925l-4.63-14.28h9.27z" stroke="#3a414a" fill="#3a414a"/><path d="M870.62 587.5v5.04m0 5.06v10.12m0 5.06v10.12m0 5.05v10.12m0 5.06v10.12m0 5.05v10.12m0 5.06v10.12m0 5.05v10.12m0 5.06v10.12m0 5.05v10.12m0 5.06v10.12m0 5.05v10.12m0 5.06v10.12m0 5.05v10.12m0 5.06v10.1m0 5.07v10.12m0 5.06v5.06" stroke="#3a414a" fill="none"/><path d="M870.62 587l.48.2v.3h-.96v-.58z" stroke="#3a414a" stroke-width=".05" fill="#3a414a"/><path d="M870.62 845.05l-4.64-14.26h9.27z" stroke="#3a414a" fill="#3a414a"/><path d="M573.43 587.63v5.06m0 5.05v10.12m0 5.05v10.12m0 5.06v10.12m0 5.05v10.12m0 5.05v10.12m0 5.05v10.12m0 5.06v10.12m0 5.05v10.12m0 5.05v10.12m0 5.05v10.12m0 5.06v10.12m0 5.05v10.12m0 5.05v10.12m0 5.05v10.12m0 5.06v10.12m0 5.05v5.06" stroke="#3a414a" fill="none"/><path d="M573.9 587.64h-.94v-.44l.38-.06.56-.06z" stroke="#3a414a" stroke-width=".05" fill="#3a414a"/><path d="M573.43 845.2l-4.63-14.27h9.27z" stroke="#3a414a" fill="#3a414a"/><path d="M1137.2 721.93c0 19.18-45.03 34.73-100.6 34.73-55.56 0-100.6-15.55-100.6-34.73 0-19.18 45.04-34.73 100.6-34.73 55.57 0 100.6 15.55 100.6 34.73z" stroke="#000" stroke-width="2" fill="#fff"/><use xlink:href="#h" transform="matrix(1,0,0,1,941.0000000000387,692.1989026062877) translate(31.523880208333345 36.52777777777778)"/><path d="M1267.85 847.4c0 19.2-45.04 34.74-100.6 34.74-55.57 0-100.6-15.55-100.6-34.73 0-19.17 45.03-34.72 100.6-34.72 55.56 0 100.6 15.55 100.6 34.73z" stroke="#000" stroke-width="2" fill="#fff"/><use xlink:href="#i" transform="matrix(1,0,0,1,1071.638977635788,817.6825179088629) translate(63.11567708333333 36.52777777777778)"/><path d="M1236.32 951.6a6 6 0 0 1 6-6h113.13a6 6 0 0 1 6 6v24.1a6 6 0 0 1-6 6h-113.13a6 6 0 0 1-6-6z" stroke="#000" stroke-width="2" fill="#fff"/><use xlink:href="#j" transform="matrix(1,0,0,1,1241.3194888178625,950.5859503115198) translate(28.92013888888889 23.21527777777778)"/><path d="M1225.83 877.13l32.5 53.46" stroke="#3a414a" fill="none"/><path d="M1226.24 876.9l-.8.5-.35-.57.95-.25z" stroke="#3a414a" stroke-width=".05" fill="#3a414a"/><path d="M1266 943.2l-11.37-9.78 7.92-4.8z" stroke="#3a414a" fill="#3a414a"/><path d="M1428.52 763.6c0 19.18-45.04 34.73-100.6 34.73-55.57 0-100.6-15.55-100.6-34.73 0-19.18 45.03-34.73 100.6-34.73 55.56 0 100.6 15.55 100.6 34.73z" stroke="#000" stroke-width="2" fill="#fff"/><use xlink:href="#k" transform="matrix(1,0,0,1,1232.309904153384,733.8724279835446) translate(41.07249131944444 36.52777777777778)"/><path d="M1384.98 526.06c0 19.18-45.05 34.73-100.6 34.73-55.57 0-100.62-15.56-100.62-34.74s45.05-34.73 100.6-34.73c55.57 0 100.62 15.55 100.62 34.73z" stroke="#000" stroke-width="2" fill="#fff"/><use xlink:href="#l" transform="matrix(1,0,0,1,1188.7635782747623,496.33333333333326) translate(44.197491319444445 21.52777777777778)"/><use xlink:href="#m" transform="matrix(1,0,0,1,1188.7635782747623,496.33333333333326) translate(50.513463541666674 53.79340277777778)"/><path d="M1531.13 602.93c0 19.18-45.04 34.72-100.6 34.72-55.57 0-100.6-15.54-100.6-34.72s45.03-34.73 100.6-34.73c55.56 0 100.6 15.55 100.6 34.73z" stroke="#000" stroke-width="2" fill="#fff"/><use xlink:href="#n" transform="matrix(1,0,0,1,1334.919062832798,573.1978356957799) translate(8.927309027777776 36.52777777777778)"/><use xlink:href="#o" transform="matrix(1,0,0,1,1334.919062832798,573.1978356957799) translate(135.60916666666665 36.52777777777778)"/><use xlink:href="#p" transform="matrix(1,0,0,1,1334.919062832798,573.1978356957799) translate(173.0440625 36.52777777777778)"/><path d="M1545.15 679.8c0 19.17-45.05 34.72-100.6 34.72-55.57 0-100.62-15.55-100.62-34.73 0-19.2 45.05-34.74 100.6-34.74 55.58 0 100.62 15.55 100.62 34.73z" stroke="#000" stroke-width="2" fill="#fff"/><use xlink:href="#n" transform="matrix(1,0,0,1,1348.933972310966,650.0623380582264) translate(6.670364583333333 36.52777777777778)"/><use xlink:href="#o" transform="matrix(1,0,0,1,1348.933972310966,650.0623380582264) translate(133.35222222222222 36.52777777777778)"/><use xlink:href="#q" transform="matrix(1,0,0,1,1348.933972310966,650.0623380582264) translate(170.78711805555554 36.52777777777778)"/><path d="M1284.37 562.3v34.63a6 6 0 0 0 6 6h22.17" stroke="#3a414a" fill="none"/><path d="M1284.37 561.8l.48-.02v.52h-.95v-.52z" stroke="#3a414a" stroke-width=".05" fill="#3a414a"/><path d="M1327.3 602.93l-14.26 4.63v-9.27z" stroke="#3a414a" fill="#3a414a"/><path d="M1284.37 562.3v111.5a6 6 0 0 0 6 6h36.18" stroke="#3a414a" fill="none"/><path d="M1284.37 561.8l.48-.02v.52h-.95v-.52z" stroke="#3a414a" stroke-width=".05" fill="#3a414a"/><path d="M1341.32 679.8l-14.27 4.63v-9.27z" stroke="#3a414a" fill="#3a414a"/><path d="M1104.68 749.02l11.53 50.77" stroke="#3a414a" fill="none"/><path d="M1105.15 748.93l-.93.2-.1-.45.9-.28z" stroke="#3a414a" stroke-width=".05" fill="#3a414a"/><path d="M1119.5 814.2l-7.7-12.9 9.05-2.05z" stroke="#3a414a" fill="#3a414a"/><path d="M1104.1 694.63l99.48-129.88" stroke="#3a414a" fill="none"/><path d="M1104.5 694.9l-.23.3-.5-.17-.46-.14.43-.56z" stroke="#3a414a" stroke-width=".05" fill="#3a414a"/><path d="M1212.56 553.03l-5 14.14-7.35-5.64z" stroke="#3a414a" fill="#3a414a"/><path d="M1138.67 722.14l72.83 34.45" stroke="#3a414a" fill="none"/><path d="M1138.88 721.72l-.4.86-.28-.13v-1.05z" stroke="#3a414a" stroke-width=".05" fill="#3a414a"/><path d="M1224.85 762.9l-14.88-1.9 3.96-8.38z" stroke="#3a414a" fill="#3a414a"/><path d="M1562.67 833.06c0 19.18-45.05 34.72-100.6 34.72-55.57 0-100.62-15.54-100.62-34.72s45.05-34.73 100.6-34.73c55.57 0 100.62 15.55 100.62 34.73z" stroke="#000" stroke-width="2" fill="#fff"/><g><use xlink:href="#r" transform="matrix(1,0,0,1,1366.4526091586467,803.3283036122615) translate(20.65690972222223 36.52777777777778)"/><use xlink:href="#s" transform="matrix(1,0,0,1,1366.4526091586467,803.3283036122615) translate(75.1165451388889 36.52777777777778)"/><use xlink:href="#t" transform="matrix(1,0,0,1,1366.4526091586467,803.3283036122615) translate(155.02105902777777 36.52777777777778)"/></g><path d="M1562.67 910.86c0 19.18-45.05 34.73-100.6 34.73-55.57 0-100.62-15.56-100.62-34.74s45.05-34.73 100.6-34.73c55.57 0 100.62 15.55 100.62 34.73z" stroke="#000" stroke-width="2" fill="#fff"/><g><use xlink:href="#r" transform="matrix(1,0,0,1,1366.4526091586467,881.130074682803) translate(21.05296006944446 36.52777777777778)"/><use xlink:href="#s" transform="matrix(1,0,0,1,1366.4526091586467,881.130074682803) translate(75.51259548611112 36.52777777777778)"/><use xlink:href="#u" transform="matrix(1,0,0,1,1366.4526091586467,881.130074682803) translate(155.417109375 36.52777777777778)"/></g><path d="M1327.92 799.83v27.23a6 6 0 0 0 6 6h10.15" stroke="#3a414a" fill="none"/><path d="M1327.9 799.33h.5v.5h-.96v-.5z" stroke="#3a414a" stroke-width=".05" fill="#3a414a"/><path d="M1358.83 833.06l-14.26 4.63v-9.28z" stroke="#3a414a" fill="#3a414a"/><path d="M1327.92 799.83v105.03a6 6 0 0 0 6 6h10.15" stroke="#3a414a" fill="none"/><path d="M1327.9 799.33h.5v.5h-.96v-.5z" stroke="#3a414a" stroke-width=".05" fill="#3a414a"/><path d="M1358.83 910.86l-14.26 4.63v-9.28z" stroke="#3a414a" fill="#3a414a"/><defs><path d="M657 26c-323 0-524-166-541-416h195c15 169 171 246 346 246 202 0 356-106 356-265 5-203-294-238-475-293-239-73-380-191-380-389 0-252 224-419 512-419 294 0 499 171 508 396H992c-17-145-151-228-328-228-193 0-321 102-321 242 0 156 175 211 284 241l149 41c160 44 422 134 422 412 0 244-197 432-541 432" id="v"/><path d="M158 418v-1536h174v179h20c37-59 106-193 324-193 279 0 474 222 474 576 0 356-194 580-473 580-213 0-288-135-325-197h-14v591H158zm492-555c209 0 317-186 317-421 0-232-105-413-317-413-206 0-314 166-314 413 0 249 111 421 314 421" id="w"/><path d="M471 26C259 26 90-98 90-318c0-256 228-303 435-329 202-27 287-16 287-108 0-139-79-219-234-219-161 0-248 86-283 164l-173-57c86-203 278-265 451-265 150 0 419 46 419 395V0H815v-152h-12C765-73 660 26 471 26zm31-159c199 0 310-134 310-271v-155c-30 35-226 55-295 64-131 17-246 59-246 186 0 116 97 176 231 176" id="x"/><path d="M598-1118v154H368v674c0 100 37 144 132 144 23 0 62-6 92-12L629-6c-37 13-88 20-134 20-193 0-307-107-307-290v-688H20v-154h168v-266h180v266h230" id="y"/><path d="M158 0v-1118h180V0H158zm91-1301c-68 0-125-53-125-119s57-119 125-119c69 0 126 53 126 119s-57 119-126 119" id="z"/><path d="M338-1490V0H158v-1490h180" id="A"/><g id="a"><use transform="matrix(0.010850694444444444,0,0,0.010850694444444444,0,0)" xlink:href="#v"/><use transform="matrix(0.010850694444444444,0,0,0.010850694444444444,14.2578125,0)" xlink:href="#w"/><use transform="matrix(0.010850694444444444,0,0,0.010850694444444444,28.08159722222222,0)" xlink:href="#x"/><use transform="matrix(0.010850694444444444,0,0,0.010850694444444444,40.55989583333333,0)" xlink:href="#y"/><use transform="matrix(0.010850694444444444,0,0,0.010850694444444444,47.82986111111111,0)" xlink:href="#z"/><use transform="matrix(0.010850694444444444,0,0,0.010850694444444444,53.21180555555556,0)" xlink:href="#x"/><use transform="matrix(0.010850694444444444,0,0,0.010850694444444444,65.69010416666666,0)" xlink:href="#A"/></g><path d="M52 0l541-1490h220L1361 0h-200l-149-416H398L254 0H52zm404-582h497c-103-290-145-390-251-756-108 377-145 460-246 756" id="B"/><path d="M611 442c-248 0-391-105-460-228l146-94c47 65 117 165 314 165 178 0 307-82 307-266v-224h-17C863-141 792-18 576-18c-268 0-472-195-472-546 0-346 197-568 476-568 216 0 288 133 326 193h17v-179h175V29c0 289-215 413-487 413zm-5-620c203 0 314-146 314-390 0-237-108-403-314-403-213 0-319 180-319 403 0 230 109 390 319 390" id="C"/><path d="M338-670V0H158v-1118h173l1 207c72-158 192-221 342-221 226 0 378 139 378 422V0H872v-695c0-172-96-275-252-275-161 0-282 109-282 300" id="D"/><path d="M158 0v-1118h175l1 205c55-151 181-225 313-225 147 0 245 90 285 228 53-141 190-228 352-228 194 0 352 125 352 384V0h-181v-749c0-161-105-225-225-225-151 0-243 103-243 244V0H807v-767c0-124-93-207-219-207-131 0-250 92-250 270V0H158" id="E"/><path d="M628 24c-324 0-524-230-524-574 0-343 198-582 503-582 237 0 487 146 487 559v75H286c9 234 145 362 343 362 132 0 231-58 273-172l174 48C1024-91 857 24 628 24zM287-650h624c-17-190-120-322-304-322-192 0-309 151-320 322" id="F"/><g id="b"><use transform="matrix(0.010850694444444444,0,0,0.010850694444444444,0,0)" xlink:href="#B"/><use transform="matrix(0.010850694444444444,0,0,0.010850694444444444,15.33203125,0)" xlink:href="#A"/><use transform="matrix(0.010850694444444444,0,0,0.010850694444444444,20.713975694444443,0)" xlink:href="#z"/><use transform="matrix(0.010850694444444444,0,0,0.010850694444444444,26.09592013888889,0)" xlink:href="#C"/><use transform="matrix(0.010850694444444444,0,0,0.010850694444444444,39.72439236111111,0)" xlink:href="#D"/><use transform="matrix(0.010850694444444444,0,0,0.010850694444444444,52.853732638888886,0)" xlink:href="#E"/><use transform="matrix(0.010850694444444444,0,0,0.010850694444444444,72.31987847222221,0)" xlink:href="#F"/><use transform="matrix(0.010850694444444444,0,0,0.010850694444444444,85.27560763888889,0)" xlink:href="#D"/><use transform="matrix(0.010850694444444444,0,0,0.010850694444444444,98.40494791666666,0)" xlink:href="#y"/></g><path d="M784 20c-382 0-662-292-662-764 0-473 280-766 662-766s660 293 660 766c0 472-278 764-660 764zm0-176c266 0 475-207 475-588 0-383-209-590-475-590-268 0-477 208-477 590 0 380 209 588 477 588" id="G"/><path d="M677 24c-213 0-288-135-325-197h-20V0H158v-1490h180v551h14c37-59 106-193 324-193 279 0 474 222 474 576 0 356-194 580-473 580zm-27-161c209 0 317-186 317-421 0-232-105-413-317-413-206 0-314 166-314 413 0 249 111 421 314 421" id="H"/><path d="M538 24C308 24 148-78 108-271l171-41c32 123 123 178 257 178 156 0 256-77 256-169 0-77-54-128-164-154l-186-44c-203-48-300-148-300-305 0-192 176-326 414-326 230 0 351 112 402 269l-163 42c-31-80-94-158-238-158-133 0-233 69-233 162 0 83 57 129 188 160l169 40c203 48 298 149 298 302 0 196-179 339-441 339" id="I"/><path d="M158 0v-1118h174v172h12c41-113 157-188 290-188 26 0 70 2 91 3v181c-11-2-60-10-108-10-161 0-279 109-279 260V0H158" id="J"/><path d="M481 0L54-1118h197c107 314 236 620 325 951 87-331 217-637 324-951h197L670 0H481" id="K"/><path d="M613 24c-304 0-509-231-509-576 0-350 205-580 509-580 305 0 511 230 511 580 0 345-206 576-511 576zm0-161c226 0 329-195 329-415 0-222-103-419-329-419-223 0-326 196-326 419 0 220 103 415 326 415" id="L"/><g id="c"><use transform="matrix(0.010850694444444444,0,0,0.010850694444444444,0,0)" xlink:href="#G"/><use transform="matrix(0.010850694444444444,0,0,0.010850694444444444,16.9921875,0)" xlink:href="#H"/><use transform="matrix(0.010850694444444444,0,0,0.010850694444444444,30.598958333333332,0)" xlink:href="#I"/><use transform="matrix(0.010850694444444444,0,0,0.010850694444444444,42.32855902777778,0)" xlink:href="#F"/><use transform="matrix(0.010850694444444444,0,0,0.010850694444444444,55.28428819444444,0)" xlink:href="#J"/><use transform="matrix(0.010850694444444444,0,0,0.010850694444444444,63.99739583333333,0)" xlink:href="#K"/><use transform="matrix(0.010850694444444444,0,0,0.010850694444444444,76.37803819444444,0)" xlink:href="#x"/><use transform="matrix(0.010850694444444444,0,0,0.010850694444444444,88.85633680555556,0)" xlink:href="#y"/><use transform="matrix(0.010850694444444444,0,0,0.010850694444444444,96.12630208333333,0)" xlink:href="#z"/><use transform="matrix(0.010850694444444444,0,0,0.010850694444444444,101.50824652777777,0)" xlink:href="#L"/><use transform="matrix(0.010850694444444444,0,0,0.010850694444444444,114.83289930555556,0)" xlink:href="#D"/></g><path d="M580 20c-295 0-476-179-476-409 0-189 123-290 294-416-104-125-173-226-173-362 0-197 144-337 365-337 224 0 362 144 362 321 0 185-174 312-306 405l319 387c38-75 61-165 61-267h173c0 208-62 332-120 406L1287 0h-217L967-124C868-27 716 20 580 20zm279-273L507-675l-51 38c-123 91-167 162-167 254 0 147 113 246 278 246 107 0 210-41 292-116zM538-908l97-72c54-40 136-101 136-206 0-95-68-163-176-163-113 0-189 74-189 181 0 90 53 164 132 260" id="M"/><use transform="matrix(0.010850694444444444,0,0,0.010850694444444444,0,0)" xlink:href="#M" id="d"/><path d="M180 0v-1490h270l367 940c28 72 75 218 110 339 35-117 81-264 110-339l362-940h271V0h-187c2-448-5-837 7-1287-157 497-311 829-483 1287H842C666-458 514-784 354-1284c12 438 5 843 7 1284H180" id="N"/><path d="M537 14c-226 0-379-139-379-422v-710h180v695c0 172 97 275 253 275 160 0 281-109 281-300v-670h181V0H879v-209C806-46 684 14 537 14" id="O"/><g id="e"><use transform="matrix(0.010850694444444444,0,0,0.010850694444444444,0,0)" xlink:href="#N"/><use transform="matrix(0.010850694444444444,0,0,0.010850694444444444,20.07378472222222,0)" xlink:href="#F"/><use transform="matrix(0.010850694444444444,0,0,0.010850694444444444,33.24652777777778,0)" xlink:href="#x"/><use transform="matrix(0.010850694444444444,0,0,0.010850694444444444,45.724826388888886,0)" xlink:href="#I"/><use transform="matrix(0.010850694444444444,0,0,0.010850694444444444,57.45442708333333,0)" xlink:href="#O"/><use transform="matrix(0.010850694444444444,0,0,0.010850694444444444,70.59461805555554,0)" xlink:href="#J"/><use transform="matrix(0.010850694444444444,0,0,0.010850694444444444,78.5915798611111,0)" xlink:href="#F"/><use transform="matrix(0.010850694444444444,0,0,0.010850694444444444,91.54730902777777,0)" xlink:href="#E"/><use transform="matrix(0.010850694444444444,0,0,0.010850694444444444,111.01345486111111,0)" xlink:href="#F"/><use transform="matrix(0.010850694444444444,0,0,0.010850694444444444,123.96918402777777,0)" xlink:href="#D"/><use transform="matrix(0.010850694444444444,0,0,0.010850694444444444,137.09852430555554,0)" xlink:href="#y"/></g><path d="M577 24c-279 0-473-224-473-580 0-354 195-576 474-576 218 0 287 134 324 193h14v-551h180V0H922v-173h-20C865-111 790 24 577 24zm27-161c203 0 314-172 314-421 0-247-108-413-314-413-212 0-317 181-317 413 0 235 108 421 317 421" id="P"/><g id="f"><use transform="matrix(0.010850694444444444,0,0,0.010850694444444444,0,0)" xlink:href="#N"/><use transform="matrix(0.010850694444444444,0,0,0.010850694444444444,20.07378472222222,0)" xlink:href="#L"/><use transform="matrix(0.010850694444444444,0,0,0.010850694444444444,33.3984375,0)" xlink:href="#P"/><use transform="matrix(0.010850694444444444,0,0,0.010850694444444444,47.00520833333333,0)" xlink:href="#F"/><use transform="matrix(0.010850694444444444,0,0,0.010850694444444444,59.960937499999986,0)" xlink:href="#A"/><use transform="matrix(0.010850694444444444,0,0,0.010850694444444444,65.34288194444444,0)" xlink:href="#A"/><use transform="matrix(0.010850694444444444,0,0,0.010850694444444444,70.72482638888889,0)" xlink:href="#z"/><use transform="matrix(0.010850694444444444,0,0,0.010850694444444444,76.10677083333333,0)" xlink:href="#D"/><use transform="matrix(0.010850694444444444,0,0,0.010850694444444444,89.23611111111111,0)" xlink:href="#C"/></g><path d="M180 0v-1490h510c348 0 508 209 508 474 0 266-160 477-507 477H370V0H180zm190-706h312c236 0 327-133 327-310 0-176-91-307-329-307H370v617" id="Q"/><g id="g"><use transform="matrix(0.010850694444444444,0,0,0.010850694444444444,0,0)" xlink:href="#Q"/><use transform="matrix(0.010850694444444444,0,0,0.010850694444444444,14.192708333333332,0)" xlink:href="#x"/><use transform="matrix(0.010850694444444444,0,0,0.010850694444444444,26.671006944444443,0)" xlink:href="#y"/><use transform="matrix(0.010850694444444444,0,0,0.010850694444444444,33.3984375,0)" xlink:href="#y"/><use transform="matrix(0.010850694444444444,0,0,0.010850694444444444,40.45138888888889,0)" xlink:href="#F"/><use transform="matrix(0.010850694444444444,0,0,0.010850694444444444,53.40711805555556,0)" xlink:href="#J"/><use transform="matrix(0.010850694444444444,0,0,0.010850694444444444,62.12022569444444,0)" xlink:href="#D"/></g><g id="h"><use transform="matrix(0.010850694444444444,0,0,0.010850694444444444,0,0)" xlink:href="#G"/><use transform="matrix(0.010850694444444444,0,0,0.010850694444444444,16.9921875,0)" xlink:href="#H"/><use transform="matrix(0.010850694444444444,0,0,0.010850694444444444,30.598958333333332,0)" xlink:href="#I"/><use transform="matrix(0.010850694444444444,0,0,0.010850694444444444,42.32855902777778,0)" xlink:href="#F"/><use transform="matrix(0.010850694444444444,0,0,0.010850694444444444,55.28428819444444,0)" xlink:href="#J"/><use transform="matrix(0.010850694444444444,0,0,0.010850694444444444,63.99739583333333,0)" xlink:href="#K"/><use transform="matrix(0.010850694444444444,0,0,0.010850694444444444,76.37803819444444,0)" xlink:href="#x"/><use transform="matrix(0.010850694444444444,0,0,0.010850694444444444,88.85633680555556,0)" xlink:href="#y"/><use transform="matrix(0.010850694444444444,0,0,0.010850694444444444,96.12630208333333,0)" xlink:href="#z"/><use transform="matrix(0.010850694444444444,0,0,0.010850694444444444,101.50824652777777,0)" xlink:href="#L"/><use transform="matrix(0.010850694444444444,0,0,0.010850694444444444,114.83289930555556,0)" xlink:href="#D"/></g><path d="M180 0v-1490h510c348 0 508 194 508 460 0 198-88 351-276 417L1256 0h-220L726-579c-117 2-238 0-356 1V0H180zm190-747h312c235 0 327-108 327-283 0-177-92-293-329-293H370v576" id="R"/><g id="i"><use transform="matrix(0.010850694444444444,0,0,0.010850694444444444,0,0)" xlink:href="#R"/><use transform="matrix(0.010850694444444444,0,0,0.010850694444444444,13.975694444444445,0)" xlink:href="#F"/><use transform="matrix(0.010850694444444444,0,0,0.010850694444444444,26.931423611111104,0)" xlink:href="#I"/><use transform="matrix(0.010850694444444444,0,0,0.010850694444444444,38.66102430555555,0)" xlink:href="#O"/><use transform="matrix(0.010850694444444444,0,0,0.010850694444444444,51.80121527777778,0)" xlink:href="#A"/><use transform="matrix(0.010850694444444444,0,0,0.010850694444444444,57.50868055555555,0)" xlink:href="#y"/></g><path d="M600 0L52-1490h200c166 485 304 806 458 1336 156-533 285-846 449-1336h202L819 0H600" id="S"/><g id="j"><use transform="matrix(0.010850694444444444,0,0,0.010850694444444444,0,0)" xlink:href="#S"/><use transform="matrix(0.010850694444444444,0,0,0.010850694444444444,14.20355902777778,0)" xlink:href="#x"/><use transform="matrix(0.010850694444444444,0,0,0.010850694444444444,26.68185763888889,0)" xlink:href="#A"/><use transform="matrix(0.010850694444444444,0,0,0.010850694444444444,32.063802083333336,0)" xlink:href="#O"/><use transform="matrix(0.010850694444444444,0,0,0.010850694444444444,45.20399305555556,0)" xlink:href="#F"/></g><path d="M613 24c-304 0-509-231-509-576 0-350 205-580 509-580 216 0 392 114 453 309l-173 49c-33-115-133-197-280-197-223 0-326 196-326 419 0 220 103 415 326 415 150 0 252-85 285-206l172 49C1010-95 832 24 613 24" id="T"/><g id="k"><use transform="matrix(0.010850694444444444,0,0,0.010850694444444444,0,0)" xlink:href="#Q"/><use transform="matrix(0.010850694444444444,0,0,0.010850694444444444,14.192708333333332,0)" xlink:href="#J"/><use transform="matrix(0.010850694444444444,0,0,0.010850694444444444,22.189670138888886,0)" xlink:href="#L"/><use transform="matrix(0.010850694444444444,0,0,0.010850694444444444,35.514322916666664,0)" xlink:href="#T"/><use transform="matrix(0.010850694444444444,0,0,0.010850694444444444,48.209635416666664,0)" xlink:href="#F"/><use transform="matrix(0.010850694444444444,0,0,0.010850694444444444,61.16536458333333,0)" xlink:href="#P"/><use transform="matrix(0.010850694444444444,0,0,0.010850694444444444,74.77213541666666,0)" xlink:href="#O"/><use transform="matrix(0.010850694444444444,0,0,0.010850694444444444,87.91232638888889,0)" xlink:href="#J"/><use transform="matrix(0.010850694444444444,0,0,0.010850694444444444,95.90928819444444,0)" xlink:href="#F"/></g><g id="l"><use transform="matrix(0.010850694444444444,0,0,0.010850694444444444,0,0)" xlink:href="#G"/><use transform="matrix(0.010850694444444444,0,0,0.010850694444444444,16.9921875,0)" xlink:href="#H"/><use transform="matrix(0.010850694444444444,0,0,0.010850694444444444,30.598958333333332,0)" xlink:href="#I"/><use transform="matrix(0.010850694444444444,0,0,0.010850694444444444,42.32855902777778,0)" xlink:href="#F"/><use transform="matrix(0.010850694444444444,0,0,0.010850694444444444,55.28428819444444,0)" xlink:href="#J"/><use transform="matrix(0.010850694444444444,0,0,0.010850694444444444,63.99739583333333,0)" xlink:href="#K"/><use transform="matrix(0.010850694444444444,0,0,0.010850694444444444,76.0525173611111,0)" xlink:href="#F"/><use transform="matrix(0.010850694444444444,0,0,0.010850694444444444,89.00824652777777,0)" xlink:href="#P"/></g><path d="M140 405l46-156c120 36 205 19 263-150l32-93L54-1118h197c107 313 237 620 324 950 87-331 219-637 326-950h196L606 167c-68 178-176 259-334 259-64 0-113-12-132-21" id="U"/><g id="m"><use transform="matrix(0.010850694444444444,0,0,0.010850694444444444,0,0)" xlink:href="#Q"/><use transform="matrix(0.010850694444444444,0,0,0.010850694444444444,14.192708333333332,0)" xlink:href="#J"/><use transform="matrix(0.010850694444444444,0,0,0.010850694444444444,22.189670138888886,0)" xlink:href="#L"/><use transform="matrix(0.010850694444444444,0,0,0.010850694444444444,35.514322916666664,0)" xlink:href="#w"/><use transform="matrix(0.010850694444444444,0,0,0.010850694444444444,49.12109375,0)" xlink:href="#F"/><use transform="matrix(0.010850694444444444,0,0,0.010850694444444444,62.076822916666664,0)" xlink:href="#J"/><use transform="matrix(0.010850694444444444,0,0,0.010850694444444444,70.78993055555556,0)" xlink:href="#y"/><use transform="matrix(0.010850694444444444,0,0,0.010850694444444444,78.4939236111111,0)" xlink:href="#U"/></g><g id="n"><use transform="matrix(0.010850694444444444,0,0,0.010850694444444444,0,0)" xlink:href="#v"/><use transform="matrix(0.010850694444444444,0,0,0.010850694444444444,14.2578125,0)" xlink:href="#w"/><use transform="matrix(0.010850694444444444,0,0,0.010850694444444444,27.864583333333332,0)" xlink:href="#F"/><use transform="matrix(0.010850694444444444,0,0,0.010850694444444444,40.8203125,0)" xlink:href="#T"/><use transform="matrix(0.010850694444444444,0,0,0.010850694444444444,53.515625,0)" xlink:href="#z"/><use transform="matrix(0.010850694444444444,0,0,0.010850694444444444,58.89756944444444,0)" xlink:href="#x"/><use transform="matrix(0.010850694444444444,0,0,0.010850694444444444,71.37586805555556,0)" xlink:href="#A"/><use transform="matrix(0.010850694444444444,0,0,0.010850694444444444,76.7578125,0)" xlink:href="#z"/><use transform="matrix(0.010850694444444444,0,0,0.010850694444444444,82.13975694444444,0)" xlink:href="#I"/><use transform="matrix(0.010850694444444444,0,0,0.010850694444444444,93.86935763888889,0)" xlink:href="#F"/><use transform="matrix(0.010850694444444444,0,0,0.010850694444444444,106.82508680555556,0)" xlink:href="#P"/></g><g id="o"><use transform="matrix(0.010850694444444444,0,0,0.010850694444444444,0,0)" xlink:href="#G"/><use transform="matrix(0.010850694444444444,0,0,0.010850694444444444,16.9921875,0)" xlink:href="#Q"/></g><path d="M653-1490V0H466v-1314h-10L96-1047v-204l324-239h233" id="V"/><use transform="matrix(0.010850694444444444,0,0,0.010850694444444444,0,0)" xlink:href="#V" id="p"/><path d="M154 0v-137l495-537c165-179 249-281 249-418 0-156-121-253-280-253-170 0-278 110-278 278H158c0-264 200-443 465-443 266 0 455 183 455 416 0 161-73 288-336 568L416-179v12h687V0H154" id="W"/><use transform="matrix(0.010850694444444444,0,0,0.010850694444444444,0,0)" xlink:href="#W" id="q"/><g id="r"><use transform="matrix(0.010850694444444444,0,0,0.010850694444444444,0,0)" xlink:href="#Q"/><use transform="matrix(0.010850694444444444,0,0,0.010850694444444444,14.192708333333332,0)" xlink:href="#J"/><use transform="matrix(0.010850694444444444,0,0,0.010850694444444444,22.189670138888886,0)" xlink:href="#L"/><use transform="matrix(0.010850694444444444,0,0,0.010850694444444444,35.514322916666664,0)" xlink:href="#T"/></g><g id="s"><use transform="matrix(0.010850694444444444,0,0,0.010850694444444444,0,0)" xlink:href="#S"/><use transform="matrix(0.010850694444444444,0,0,0.010850694444444444,14.20355902777778,0)" xlink:href="#x"/><use transform="matrix(0.010850694444444444,0,0,0.010850694444444444,26.68185763888889,0)" xlink:href="#J"/><use transform="matrix(0.010850694444444444,0,0,0.010850694444444444,35.39496527777778,0)" xlink:href="#z"/><use transform="matrix(0.010850694444444444,0,0,0.010850694444444444,40.77690972222222,0)" xlink:href="#x"/><use transform="matrix(0.010850694444444444,0,0,0.010850694444444444,53.25520833333333,0)" xlink:href="#D"/><use transform="matrix(0.010850694444444444,0,0,0.010850694444444444,66.3845486111111,0)" xlink:href="#y"/></g><use transform="matrix(0.010850694444444444,0,0,0.010850694444444444,0,0)" xlink:href="#B" id="t"/><path d="M180 0v-1490h528c311 0 458 177 458 395 0 191-114 278-244 313v14c139 9 302 137 302 371 0 225-148 397-499 397H180zm190-168h350c232 0 321-102 321-231 0-149-120-277-311-277H370v508zm0-668h328c160 0 286-101 286-255 0-129-87-231-280-231H370v486" id="X"/><use transform="matrix(0.010850694444444444,0,0,0.010850694444444444,0,0)" xlink:href="#X" id="u"/></defs></g></svg>